<svg xmlns="http://www.w3.org/2000/svg" x="0px" y="0px"
width="6" height="6"
viewBox="0 0 226 226"
style=" fill:#000000;"><g fill="none" fill-rule="nonzero" stroke="none" stroke-width="1" stroke-linecap="butt" stroke-linejoin="miter" stroke-miterlimit="10" stroke-dasharray="" stroke-dashoffset="0" font-family="none" font-weight="none" font-size="none" text-anchor="none" style="mix-blend-mode: normal"><path d="M0,226v-226h226v226z" fill="none"></path><g fill="#d60000"><path d="M105.9375,28.25c-3.69677,0 -7.47632,1.29663 -10.15234,3.97266c-2.67602,2.67602 -3.97266,6.45557 -3.97266,10.15234v7.0625h-42.375v14.125h7.0625v113c0,11.6145 9.573,21.1875 21.1875,21.1875h84.75c11.6145,0 21.1875,-9.573 21.1875,-21.1875v-113h7.0625v-14.125h-42.375v-7.0625c0,-3.69677 -1.29663,-7.47632 -3.97266,-10.15234c-2.67602,-2.67602 -6.45556,-3.97266 -10.15234,-3.97266zM105.9375,42.375h28.25v7.0625h-28.25zM70.625,63.5625h98.875v113c0,3.91748 -3.14502,7.0625 -7.0625,7.0625h-84.75c-3.91748,0 -7.0625,-3.14502 -7.0625,-7.0625zM84.75,84.75v77.6875h14.125v-77.6875zM113,84.75v77.6875h14.125v-77.6875zM141.25,84.75v77.6875h14.125v-77.6875z"></path></g></g></svg>